<?xml version="1.0" encoding="UTF-8"?>
<svg width="107px" height="155px" viewBox="0 0 107 155" version="1.1" xmlns="http://www.w3.org/2000/svg" xmlns:xlink="http://www.w3.org/1999/xlink">
    <!-- Generator: sketchtool 62 (101010) - https://sketch.com -->
    <title>329F5F31-E24F-471C-B8E3-4092F1C860D2</title>
    <desc>Created with sketchtool.</desc>
    <defs>
        <polygon id="path-1" points="0 0.0219137924 106.320061 0.0219137924 106.320061 126.92389 0 126.92389"></polygon>
        <polygon id="path-3" points="0.57930708 0.522132629 14.357387 0.522132629 14.357387 18.5301572 0.57930708 18.5301572"></polygon>
    </defs>
    <g id="Asset-Artboard-Page" stroke="none" stroke-width="1" fill="none" fill-rule="evenodd">
        <g id="Logo-neg">
            <g id="Group-57">
                <path d="M72.3379891,93.4987043 L68.4283542,95.1174031 C68.2037993,95.2094411 67.9732959,95.3000181 67.7465103,95.384021 C67.598542,95.4409968 67.4899824,95.5491049 67.4312412,95.6900836 C67.3888583,95.8164531 67.3888583,95.9581623 67.4423946,96.0801491 C67.4505737,96.0947583 67.4520608,96.1108284 67.4632142,96.1247071 C69.1444018,99.203595 72.1082293,101.411775 75.5910612,102.175836 C75.7434908,102.213089 75.9003819,102.175836 76.0230691,102.085259 C76.1509613,101.993951 76.2297786,101.863199 76.2431627,101.709072 C76.2602646,101.466559 76.2907505,101.22916 76.32198,100.999796 L76.8469329,96.8558974 C76.9525183,96.0502003 76.873701,95.3270451 76.6141988,94.7280681 C75.9487132,93.1794934 74.2712434,92.6966595 72.3379891,93.4987043" id="Fill-1" fill="#FFFFFF"></path>
                <path d="M76.7238675,88.2649594 C76.5320292,89.7777415 77.6280356,91.1612322 79.169434,91.3518822 C80.7063711,91.5410713 82.1161595,90.4636432 82.3057671,88.9567047 C82.4968618,87.4439226 81.4030861,86.0604318 79.8706104,85.8690514 C78.3277249,85.6798623 76.9231414,86.7550991 76.7238675,88.2649594" id="Fill-3" fill="#FFFFFF"></path>
                <path d="M86.3203954,88.0060091 C85.2853609,89.3449418 85.7047283,91.0155033 87.3717882,92.263859 L90.7609314,94.7810233 C90.9520261,94.923463 91.1386595,95.0768595 91.3290107,95.2295256 C91.4502108,95.3201026 91.6071018,95.3595475 91.7573008,95.3347118 C91.8911415,95.3201026 92.0145723,95.2426739 92.0933896,95.1374877 C92.1075172,95.122148 92.1142093,95.1119216 92.1238755,95.0973124 C93.9954142,92.1265326 94.4608823,88.4997999 93.3998232,85.1564855 C93.3507483,85.0096631 93.2421887,84.8891373 93.0979382,84.8285091 C92.9574055,84.7671505 92.7990274,84.7744551 92.6584946,84.8336223 C92.4391447,84.9358867 92.2101284,85.0366901 91.9937527,85.1243453 L88.0781695,86.7430441 C87.3145341,87.063716 86.7219174,87.4910349 86.3203954,88.0060091" id="Fill-5" fill="#FFFFFF"></path>
                <path d="M89.4108486,97.9271183 C89.209344,97.7876005 89.0063523,97.6451608 88.8189754,97.5085649 L85.4320627,94.9870178 C84.7717821,94.4910357 84.0996044,94.1988518 83.4400673,94.1185012 C81.743265,93.9110506 80.4784706,95.1002391 80.2219426,97.1440655 L79.6947591,101.285042 C79.6598118,101.517328 79.6226338,101.754727 79.5824816,101.989205 C79.5609184,102.142601 79.6025577,102.293807 79.7007075,102.40995 C79.7899347,102.511484 79.9133655,102.580877 80.0464626,102.596947 C80.0672823,102.602791 80.0814099,102.602791 80.0985118,102.602791 C83.6504946,102.714551 87.0768159,101.294538 89.5000757,98.7182062 C89.5997127,98.6049849 89.6510183,98.4508579 89.6309422,98.2996528 C89.616071,98.1535608 89.5387408,98.0089298 89.4108486,97.9271183" id="Fill-7" fill="#FFFFFF"></path>
                <path d="M86.6449612,83.7345042 L90.5598009,82.113614 C90.7813816,82.0223065 91.005193,81.9331904 91.2371835,81.8491876 C91.3844082,81.7995163 91.4937114,81.6811818 91.5524526,81.5445859 C91.5940919,81.414564 91.5940919,81.2772376 91.5435299,81.1559813 C91.5323765,81.1391807 91.5286587,81.123841 91.5204795,81.1077709 C89.8407791,78.0266917 86.8754646,75.8207032 83.3918893,75.0537205 C83.243921,75.0237716 83.0862865,75.0537205 82.9576507,75.145028 C82.8334763,75.235605 82.7524283,75.3714705 82.7442492,75.5226756 C82.7197117,75.7608055 82.6981485,76.0025877 82.666919,76.2326825 L82.1397355,80.3751198 C82.0289451,81.1881215 82.1092495,81.9047025 82.3665211,82.5022186 C83.0349809,84.0537151 84.7139378,84.5350881 86.6449612,83.7345042" id="Fill-9" fill="#FFFFFF"></path>
                <path d="M65.8827038,92.4016258 C66.0232365,92.4659063 66.1838454,92.462254 66.3243781,92.4016258 C66.5452152,92.2942482 66.768283,92.1970971 66.9891201,92.1065201 L70.9099082,90.4841689 C71.6728,90.172993 72.2669039,89.7478655 72.6743744,89.2233953 C73.7012298,87.8844626 73.2878108,86.2117097 71.6110846,84.9706586 L68.224172,82.448381 C68.035308,82.3044804 67.8464439,82.1569275 67.6546056,82.0086442 C67.5348926,81.9144149 67.3809758,81.8720482 67.2263155,81.893962 C67.0924748,81.9202586 66.9735053,81.9911132 66.8865089,82.0992212 C66.8760991,82.1123695 66.8656892,82.1225959 66.8589972,82.138666 C64.9852278,85.1087155 64.5234775,88.7325264 65.590485,92.0758407 C65.6321244,92.2233936 65.7429147,92.3409976 65.8827038,92.4016258" id="Fill-11" fill="#FFFFFF"></path>
                <path d="M86.6449612,31.0223348 L90.5598009,29.402175 C90.7813816,29.3108676 91.005193,29.2224819 91.2371835,29.1370181 C91.3844082,29.0822336 91.4937114,28.9755865 91.5524526,28.8316859 C91.5940919,28.7067773 91.5940919,28.566529 91.5435299,28.4438118 C91.5323765,28.4277417 91.5286587,28.4109411 91.5204795,28.3970624 C89.8407791,25.3189049 86.8754646,23.1121859 83.3918893,22.3452032 C83.243921,22.3152543 83.0862865,22.3452032 82.9576507,22.4365106 C82.8334763,22.5234353 82.7524283,22.6607618 82.7442492,22.8126974 C82.7197117,23.0530187 82.6981485,23.2940704 82.666919,23.5241652 L82.1397355,27.6629503 C82.0289451,28.475952 82.1092495,29.1918026 82.3665211,29.7966233 C83.0349809,31.3400848 84.7139378,31.8229187 86.6449612,31.0223348" id="Fill-13" fill="#FFFFFF"></path>
                <path d="M69.5729086,79.3047051 C69.7796181,79.4456839 69.9766613,79.5830103 70.1618075,79.72545 L73.547233,82.249919 C74.211975,82.7415184 74.8863833,83.0344328 75.541459,83.111131 C77.2412355,83.3236948 78.5000814,82.1381586 78.7655321,80.0899494 L79.2934592,75.947512 C79.3239451,75.7152258 79.3611231,75.4763654 79.3983011,75.2418878 C79.4213514,75.0899522 79.3856605,74.938747 79.2845365,74.8233344 C79.2005143,74.7159568 79.0696478,74.6487545 78.9432428,74.6348758 C78.9201924,74.6348758 78.9038341,74.6319539 78.8897065,74.6283016 C75.3317753,74.5194631 71.9061976,75.9358246 69.491117,78.5209218 C69.3877623,78.6319517 69.3364567,78.7787741 69.3490972,78.9285184 C69.3669426,79.0826454 69.4494777,79.2207023 69.5729086,79.3047051" id="Fill-15" fill="#FFFFFF"></path>
                <path d="M89.4108486,45.2188195 C89.209344,45.0771103 89.0063523,44.9397839 88.8189754,44.7958833 L85.4320627,42.2736058 C84.7717821,41.7827368 84.0996044,41.4912834 83.4400673,41.4123937 C81.743265,41.1976385 80.4784706,42.3875575 80.2219426,44.4335752 L79.6947591,48.5745516 C79.6598118,48.8126815 79.6226338,49.0435067 79.5824816,49.2801757 C79.5609184,49.4321113 79.6025577,49.5855079 79.7007075,49.7009205 C79.7899347,49.8039153 79.9133655,49.8703872 80.0464626,49.8886487 C80.0672823,49.8908401 80.0814099,49.8952228 80.0985118,49.8952228 C83.6504946,50.0040613 87.0768159,48.5884303 89.5000757,46.0055246 C89.5997127,45.8923034 89.6510183,45.7403677 89.6309422,45.5928149 C89.616071,45.4408792 89.5387408,45.3035528 89.4108486,45.2188195" id="Fill-17" fill="#FFFFFF"></path>
                <path d="M72.3379891,40.7871942 L68.4283542,42.4095453 C68.2037993,42.5001223 67.9732959,42.5877774 67.7465103,42.6703194 C67.598542,42.7251039 67.4899824,42.8397861 67.4312412,42.9800343 C67.3888583,43.1071343 67.3888583,43.2466521 67.4423946,43.3700998 C67.4505737,43.3825176 67.4520608,43.4007791 67.4632142,43.4124665 C69.1444018,46.4950066 72.1082293,48.6958818 75.5910612,49.4665168 C75.7434908,49.5008484 75.9003819,49.4665168 76.0230691,49.3795921 C76.1509613,49.2882846 76.2297786,49.1509582 76.2431627,48.9990226 C76.2602646,48.7587013 76.2907505,48.5176496 76.32198,48.2890157 L76.8469329,44.1487699 C76.9525183,43.3313855 76.873701,42.6177263 76.6141988,42.0129056 C75.9487132,40.4679833 74.2712434,39.9880712 72.3379891,40.7871942" id="Fill-19" fill="#FFFFFF"></path>
                <path d="M76.7238675,35.5548374 C76.5320292,37.0654283 77.6280356,38.4489191 79.169434,38.6373777 C80.7063711,38.8294886 82.1161595,37.7557127 82.3057671,36.2443915 C82.4968618,34.7338007 81.4030861,33.3459271 79.8706104,33.1581989 C78.3277249,32.9697403 76.9231414,34.046438 76.7238675,35.5548374" id="Fill-21" fill="#FFFFFF"></path>
                <path d="M86.3203954,35.3001983 C85.2853609,36.6325569 85.7047283,38.3038489 87.3717882,39.5492828 L90.7609314,42.0737517 C90.9520261,42.2132695 91.1386595,42.3630138 91.3290107,42.5105666 C91.4502108,42.6099092 91.6071018,42.6522758 91.7573008,42.6281707 C91.8911415,42.603335 92.0145723,42.5324804 92.0933896,42.4258333 C92.1075172,42.4112241 92.1142093,42.3995367 92.1238755,42.3849276 C93.9954142,39.4163391 94.4608823,35.7917978 93.3998232,32.4441007 C93.3507483,32.3009306 93.2421887,32.1789438 93.0979382,32.1183156 C92.9574055,32.0576875 92.7990274,32.0576875 92.6584946,32.1248898 C92.4391447,32.2235018 92.2101284,32.3250358 91.9937527,32.4156128 L88.0781695,34.0335811 C87.3145341,34.3513311 86.7219174,34.7779196 86.3203954,35.3001983" id="Fill-23" fill="#FFFFFF"></path>
                <path d="M65.8827038,39.6890189 C66.0232365,39.7496471 66.1838454,39.7496471 66.3243781,39.6868275 C66.5452152,39.5882154 66.768283,39.4844902 66.9891201,39.3975654 L70.9099082,37.7737534 C71.6728,37.4581948 72.2669039,37.0337976 72.6743744,36.5115189 C73.7012298,35.1784298 73.2878108,33.505677 71.6110846,32.2580517 L68.224172,29.7401569 C68.035308,29.5940649 67.8464439,29.4487034 67.6546056,29.2967678 C67.5348926,29.1996166 67.3809758,29.15725 67.2263155,29.1835465 C67.0924748,29.2061908 66.9735053,29.2785063 66.8865089,29.3858839 C66.8760991,29.3997626 66.8656892,29.4121804 66.8589972,29.4245982 C64.9852278,32.3975695 64.5234775,36.0199195 65.590485,39.3676166 C65.6321244,39.5129781 65.7429147,39.632043 65.8827038,39.6890189" id="Fill-25" fill="#FFFFFF"></path>
                <g id="Group-29" transform="translate(0.000000, 0.708546)">
                    <mask id="mask-2" fill="white">
                        <use xlink:href="#path-1"></use>
                    </mask>
                    <g id="Clip-28"></g>
                    <path d="M1.54883409,1.78517066 L52.9332443,1.78517066 L52.9087069,124.689414 C47.1461222,120.366553 40.6295683,119.204392 33.7590802,117.980141 C31.1900828,117.522143 28.5296275,117.043691 25.8059697,116.392121 C24.1470889,116.018856 22.4175699,115.668966 20.745305,115.338798 C9.15172812,113.029084 1.55032121,110.975031 1.54883409,103.769046 L1.54883409,1.78517066 Z M58.9806143,84.2350839 L59.60223,83.70477 L61.8470356,83.6390287 C61.8775215,83.6390287 61.902059,83.6185758 61.9124688,83.5886269 C62.0455659,83.0035286 62.2188153,82.4169694 62.4188327,81.8552459 C62.428499,81.8245665 62.4188327,81.7946177 62.3920646,81.7778171 L60.5205257,80.5411487 L60.2877917,79.7719745 C60.5101159,79.2394694 60.7718488,78.70039 61.0536578,78.1656935 L61.8091141,77.8479435 L63.9773331,78.4724866 C64.0055884,78.474678 64.0331001,78.4688343 64.0472277,78.4403463 C64.3729067,77.9224504 64.7186618,77.4191636 65.0807752,76.9502084 C65.0971335,76.9239118 65.0971335,76.8932325 65.0807752,76.8691273 L63.6932934,75.1299026 L63.7081646,74.323475 C64.100764,73.8778945 64.5186443,73.4388882 64.9469345,73.0261784 L65.7670805,72.9538629 L67.6237481,74.1992968 C67.6334144,74.2014882 67.6438242,74.2058709 67.6542341,74.2058709 C67.6810022,74.2117146 67.6891814,74.2058709 67.7077703,74.1934531 C68.1650593,73.805579 68.6506036,73.4337749 69.1532497,73.0868065 C69.1763,73.0729278 69.1859663,73.0385962 69.1763,73.014491 L68.4015112,70.9290283 L68.6714232,70.1686197 C69.1919148,69.8574438 69.7235597,69.5703731 70.2552046,69.3110599 L71.0508131,69.4892921 L72.4308593,71.244587 C72.4472176,71.2628485 72.4658066,71.2694226 72.4784471,71.2694226 C72.4888569,71.2730749 72.4985232,71.2694226 72.5133944,71.2628485 C73.0710639,71.0305622 73.6517837,70.8238421 74.2429134,70.6478013 C74.2711686,70.6419576 74.2919883,70.6112783 74.2838092,70.5835208 L74.2057354,68.3768018 L74.7039202,67.7310754 C75.3002548,67.5966708 75.8943587,67.4871018 76.4802834,67.4023685 L77.1807163,67.8143478 L77.9361726,69.8939668 C77.9465825,69.918072 77.9733506,69.9363335 77.9919396,69.9363335 C78.3131572,69.9114978 78.623965,69.8939668 78.9199016,69.8873927 C79.2143511,69.8749749 79.5340817,69.8735139 79.8448895,69.8793576 C79.876119,69.8793576 79.9043742,69.8574438 79.9125534,69.8267645 L80.5304512,67.7055093 L81.2033724,67.2482415 C81.5149237,67.2738075 81.83168,67.3066782 82.1402572,67.3424708 C82.4250404,67.3789938 82.7127978,67.4184386 82.9990682,67.4666489 L83.5381487,68.0751219 L83.6065562,70.2796496 C83.6065562,70.3139812 83.6266323,70.3388168 83.6496826,70.34393 C84.2445301,70.4819869 84.8401211,70.6478013 85.4223281,70.8421036 C85.4565318,70.8486778 85.4773515,70.8421036 85.496684,70.8238421 L86.7525558,68.9808921 L87.538498,68.7507972 C88.1050902,68.9772398 88.6464014,69.2343616 89.1773028,69.5053622 L89.5007511,70.2475093 L88.8627772,72.3753387 C88.8560851,72.3994439 88.8687256,72.434506 88.8932631,72.4476542 C89.4144982,72.7580996 89.9253235,73.0992244 90.4108677,73.4578801 C90.4316874,73.4629933 90.4420972,73.4695675 90.4517635,73.4695675 C90.4725831,73.4695675 90.482993,73.4695675 90.4934028,73.4578801 L92.2615869,72.0955726 L93.08322,72.1145646 C93.5315863,72.4907514 93.9806961,72.8990784 94.4089863,73.3285887 L94.4811115,74.1335554 L93.2111122,75.9575135 C93.1902925,75.9816187 93.1902925,76.0159503 93.21483,76.0342118 C93.616352,76.4951319 93.9948237,76.9743135 94.3413224,77.4600693 C94.3576807,77.4790613 94.3718083,77.4841745 94.3881666,77.4863659 L96.5400274,76.7223049 L97.311842,76.9889227 C97.637521,77.4951314 97.9282527,78.0181406 98.1884984,78.5404193 L98.0100442,79.3263941 L96.2247582,80.6835884 C96.1942723,80.6996585 96.1860931,80.7303378 96.2046821,80.7610171 C96.4344419,81.3066706 96.6470999,81.8800815 96.8262977,82.4571447 C96.8367075,82.4856327 96.8590143,82.5024332 96.879834,82.5024332 L99.1402544,82.4235436 L99.7945866,82.9085689 C99.930658,83.4666402 100.041448,84.0597735 100.128445,84.6580201 L99.7120515,85.3468437 L97.5914203,86.0926431 C97.5653957,86.1028695 97.5549859,86.1320879 97.5549859,86.1569236 C97.575062,86.4666385 97.5914203,86.766127 97.607035,87.0626937 C97.6122399,87.3497644 97.6167013,87.6536357 97.6122399,87.9611592 C97.6122399,87.9918385 97.6278547,88.0203265 97.6620584,88.0276311 L99.8191241,88.6309909 L100.285336,89.2942484 C100.239979,89.8786162 100.165623,90.4717495 100.062268,91.061961 L99.4488315,91.5937358 L97.1958467,91.6536335 C97.1742835,91.6536335 97.1460282,91.6770082 97.1348748,91.7011134 C96.9988035,92.2847507 96.8262977,92.8691186 96.6262802,93.4403381 C96.6158704,93.470287 96.6262802,93.5009663 96.648587,93.5177669 L98.5245872,94.7471307 L98.7640134,95.5236094 C98.5372278,96.0626888 98.2717771,96.6039595 97.9892245,97.1357342 L97.237486,97.4469101 L95.0714977,96.8230974 C95.0410117,96.8157928 95.0082951,96.8230974 94.9963982,96.8537767 C94.6707192,97.3694813 94.3309126,97.874229 93.9635942,98.3424538 C93.9435181,98.3716722 93.9502102,98.4038124 93.9635942,98.4279176 L95.3503324,100.161299 L95.3376919,100.969918 C94.944349,101.414768 94.5264687,101.855965 94.0944607,102.268675 L93.2787761,102.33953 L91.4258262,101.094096 C91.4154164,101.094096 91.4057501,101.086791 91.4012888,101.086791 C91.3596494,101.083139 91.3440347,101.095557 91.3388298,101.097748 C90.8741052,101.49804 90.3885609,101.871305 89.8918633,102.208047 C89.8717872,102.224117 89.8591467,102.254796 89.8717872,102.283284 L90.6458325,104.364364 L90.3744333,105.124773 C89.8487368,105.442523 89.3215533,105.725211 88.7966004,105.983794 L87.9920692,105.807022 L86.6149973,104.052458 C86.5978954,104.038579 86.5874856,104.028353 86.5733579,104.022509 C85.972562,104.265022 85.3910986,104.471742 84.8081481,104.645591 C84.7776621,104.653626 84.7546118,104.682114 84.7635345,104.712063 L84.8401211,106.919513 L84.3434235,107.557934 C83.760473,107.697452 83.1619077,107.808482 82.5663167,107.893946 L81.8629095,107.478314 L81.1089403,105.397965 C81.0985305,105.37459 81.0695317,105.35925 81.0576348,105.355598 C80.7215459,105.382625 80.4129688,105.397965 80.1229807,105.410383 C79.8300183,105.416226 79.5147491,105.42207 79.2046849,105.416226 C79.168994,105.416226 79.1429694,105.435949 79.1385081,105.462976 L78.5183796,107.587883 L77.8432277,108.045882 C77.5331635,108.021046 77.220125,107.991097 76.9085736,107.952383 C76.624534,107.913668 76.3345458,107.872763 76.0482755,107.828935 L75.5084514,107.219732 L75.4452488,105.010091 C75.4452488,104.980142 75.4244292,104.957498 75.3939432,104.948002 C74.7946344,104.812867 74.1990434,104.645591 73.6287334,104.449098 L73.6227849,104.449098 C73.592299,104.443254 73.5714793,104.45275 73.5469418,104.473203 L72.2925572,106.317614 L71.5043843,106.546978 C70.9571247,106.324188 70.4046601,106.067796 69.8655795,105.786569 L69.5480797,105.048075 L70.1845665,102.919515 C70.1927457,102.891757 70.1823358,102.861808 70.1555677,102.847199 C69.6313584,102.531641 69.113841,102.191977 68.6297839,101.83186 C68.6141692,101.828208 68.6052465,101.828208 68.5933495,101.826747 C68.5747605,101.822364 68.56212,101.828208 68.5479924,101.83186 L66.7790647,103.201472 L65.9581752,103.181019 C65.5031169,102.797528 65.0599555,102.388471 64.6428187,101.961152 L64.564745,101.16495 L65.8384621,99.3402618 C65.8511027,99.3095825 65.8511027,99.2789032 65.8287959,99.254798 C65.4302481,98.8092176 65.054007,98.328575 64.7045342,97.8340538 C64.6837145,97.8150618 64.6651255,97.8099486 64.6562028,97.8099486 L62.509547,98.5718181 L61.7273225,98.3073917 C61.4187454,97.802644 61.1235524,97.2789043 60.8506661,96.7551646 L61.0350688,95.9648071 L62.8263033,94.6119956 C62.84861,94.5915427 62.8567892,94.5615939 62.8471229,94.5345669 C62.6136453,93.988183 62.3980131,93.4198852 62.2188153,92.8384393 C62.2128668,92.8084904 62.1816373,92.7953421 62.1682532,92.7902289 L59.90932,92.8691186 L59.2564749,92.3848237 C59.1122243,91.7982645 58.9992033,91.2160881 58.9166682,90.6346421 L59.3323179,89.9428966 L61.4529492,89.2029409 C61.4797173,89.1905231 61.4945885,89.1686093 61.4945885,89.13793 C61.4693075,88.8267541 61.4492314,88.5221524 61.4432829,88.2321598 C61.4321295,87.9363236 61.4284117,87.6368351 61.4321295,87.3271201 C61.4321295,87.2964408 61.4120534,87.2752575 61.3875159,87.266492 L59.2252454,86.6602104 L58.7560594,85.9976833 C58.8081086,85.4067414 58.8794903,84.8121471 58.9806143,84.2350839 L58.9806143,84.2350839 Z M58.9806143,31.5251103 L59.60223,30.9977183 L61.8470356,30.9283246 C61.8775215,30.9283246 61.902059,30.9086022 61.9124688,30.8779229 C62.0455659,30.2913637 62.2188153,29.7069959 62.4188327,29.1445418 C62.428499,29.1182453 62.4188327,29.0839137 62.3920646,29.0678435 L60.5205257,27.834097 L60.2877917,27.0612705 C60.5101159,26.5331481 60.7718488,25.9874946 61.0536578,25.4535285 L61.8091141,25.1401613 L63.9773331,25.7610521 C64.0055884,25.7668958 64.0331001,25.7610521 64.0472277,25.7281814 C64.3729067,25.2110159 64.7186618,24.70919 65.0807752,24.2402348 C65.0971335,24.2153992 65.0971335,24.1810676 65.0807752,24.1613451 L63.6932934,22.4177376 L63.7081646,21.6127709 C64.100764,21.1671905 64.5186443,20.731106 64.9469345,20.3140134 L65.7670805,20.2431588 L67.6237481,21.4893232 C67.6334144,21.4929755 67.6438242,21.4973583 67.6542341,21.4973583 C67.6810022,21.503202 67.6891814,21.4929755 67.7077703,21.4849405 C68.1650593,21.0948749 68.6506036,20.7208795 69.1532497,20.3746416 C69.1763,20.3607629 69.1859663,20.3300835 69.1763,20.3023261 L68.4015112,18.2190548 L68.6714232,17.4586461 C69.1919148,17.1489312 69.7235597,16.8574777 70.2552046,16.5945122 L71.0508131,16.7763967 L72.4308593,18.532422 C72.4472176,18.5506835 72.4658066,18.5565272 72.4784471,18.5609099 C72.4888569,18.5609099 72.4985232,18.5609099 72.5133944,18.5506835 C73.0710639,18.3220496 73.6517837,18.1153295 74.2429134,17.9392887 C74.2711686,17.9297927 74.2919883,17.9013047 74.2838092,17.8713559 L74.2057354,15.6646369 L74.7039202,15.0254846 C75.3002548,14.8874277 75.8943587,14.7742064 76.4802834,14.6916644 L77.1807163,15.1043742 L77.9361726,17.1832628 C77.9465825,17.2095593 77.9733506,17.2219771 77.9919396,17.2278208 C78.3131572,17.2037156 78.623965,17.1854542 78.9199016,17.1730363 C79.2143511,17.1606185 79.5340817,17.1606185 79.8448895,17.1671927 C79.876119,17.1671927 79.9043742,17.1489312 79.9125534,17.1189823 L80.5304512,14.9948052 L81.2033724,14.5375374 C81.5149237,14.563834 81.83168,14.5945133 82.1402572,14.6310363 C82.4250404,14.6668288 82.7127978,14.7099259 82.9990682,14.7537535 L83.5381487,15.362957 L83.6065562,17.5718674 C83.6065562,17.6018162 83.6266323,17.6259214 83.6496826,17.6339565 C84.2445301,17.7720134 84.8401211,17.9392887 85.4223281,18.133591 C85.4565318,18.1401651 85.4773515,18.1299387 85.496684,18.1094858 L86.7525558,16.2709185 L87.538498,16.0386323 C88.1050902,16.2672662 88.6464014,16.5214662 89.1773028,16.7931972 L89.5007511,17.5353444 L88.8627772,19.6631738 C88.8560851,19.6909312 88.8687256,19.7216105 88.8932631,19.739872 C89.4144982,20.0488565 89.9253235,20.3907117 90.4108677,20.748637 C90.4316874,20.7552111 90.4420972,20.7552111 90.4517635,20.7574025 C90.4725831,20.7610548 90.482993,20.7552111 90.4934028,20.748637 L92.2615869,19.3841381 L93.08322,19.4016692 C93.5315863,19.7822387 93.9806961,20.1891048 94.4089863,20.621537 L94.4811115,21.42066 L93.2111122,23.2446181 C93.1902925,23.2672624 93.1902925,23.3037853 93.21483,23.3213164 C93.616352,23.782967 93.9948237,24.26434 94.3413224,24.7493653 C94.3576807,24.7698181 94.3718083,24.7742009 94.3881666,24.7742009 L96.5400274,24.0116009 L97.311842,24.2760273 C97.637521,24.7858883 97.9282527,25.3059756 98.1884984,25.8275239 L98.0100442,26.6142291 L96.2247582,27.9736148 C96.1942723,27.9918763 96.1860931,28.0218251 96.2046821,28.0466608 C96.4344419,28.6003493 96.6470999,29.1730298 96.8262977,29.7457102 C96.8367075,29.7734677 96.8590143,29.7895378 96.879834,29.7917292 L99.1402544,29.7128395 L99.7945866,30.1964039 C99.930658,30.758858 100.041448,31.3432258 100.128445,31.9480465 L99.7120515,32.6376005 L97.5914203,33.3797477 C97.5653957,33.3921655 97.5549859,33.4162707 97.5549859,33.44695 C97.575062,33.7500908 97.5914203,34.055423 97.607035,34.3505287 C97.6122399,34.6375994 97.6167013,34.9429316 97.6122399,35.2526466 C97.6122399,35.2833259 97.6278547,35.3074311 97.6620584,35.3132747 L99.8191241,35.9224782 L100.285336,36.5857357 C100.239979,37.1686426 100.165623,37.7588541 100.062268,38.3497961 L99.4488315,38.8793794 L97.1958467,38.9443904 C97.1742835,38.9443904 97.1460282,38.9641128 97.1348748,38.9947921 C96.9988035,39.5733162 96.8262977,40.1576841 96.6262802,40.7259818 C96.6158704,40.758122 96.6262802,40.7888013 96.648587,40.8048714 L98.5245872,42.0408094 L98.7640134,42.8136359 C98.5372278,43.3490629 98.2717771,43.891064 97.9892245,44.4213779 L97.237486,44.7347451 L95.0714977,44.1116629 C95.0410117,44.1080106 95.0082951,44.1138543 94.9963982,44.1423422 C94.6707192,44.6616991 94.3309126,45.1598727 93.9635942,45.6346716 C93.9435181,45.6587767 93.9502102,45.6916474 93.9635942,45.7194049 L95.3503324,47.4535164 L95.3376919,48.259944 C94.944349,48.7047941 94.5264687,49.1438004 94.0944607,49.5565102 L93.2787761,49.6295562 L91.4258262,48.3833918 C91.4154164,48.3812004 91.4057501,48.3775481 91.4012888,48.3775481 C91.3596494,48.3709739 91.3440347,48.3833918 91.3388298,48.3892354 C90.8741052,48.7858751 90.3885609,49.1584096 89.8918633,49.495882 C89.8717872,49.5097607 89.8591467,49.5448228 89.8717872,49.576963 L90.6458325,51.6536602 L90.3744333,52.4147993 C89.8487368,52.730358 89.3215533,53.0174287 88.7966004,53.2723591 L87.9920692,53.0941269 L86.6149973,51.340293 C86.5978954,51.3264142 86.5874856,51.3161878 86.5733579,51.3161878 C85.972562,51.5528568 85.3910986,51.7588464 84.8081481,51.9348872 C84.7776621,51.9414614 84.7546118,51.9714102 84.7635345,52.0020896 L84.8401211,54.2088086 L84.3434235,54.8479609 C83.760473,54.9852873 83.1619077,55.0985086 82.5663167,55.181781 L81.8629095,54.7668799 L81.1089403,52.6894522 C81.0985305,52.6595034 81.0695317,52.6470855 81.0576348,52.6470855 C80.7215459,52.6711907 80.4129688,52.6894522 80.1229807,52.6996786 C79.8300183,52.7077137 79.5147491,52.7077137 79.2046849,52.7040614 C79.168994,52.7040614 79.1429694,52.7259752 79.1385081,52.7500804 L78.5183796,54.8779097 L77.8432277,55.3351776 C77.5331635,55.3132638 77.220125,55.2803931 76.9085736,55.2402178 C76.624534,55.2080776 76.3345458,55.1649804 76.0482755,55.1189615 L75.5084514,54.5082971 L75.4452488,52.2993867 C75.4452488,52.2687074 75.4244292,52.2446022 75.3939432,52.2387585 C74.7946344,52.1007016 74.1990434,51.9348872 73.6287334,51.7413154 L73.6227849,51.7413154 C73.592299,51.7347413 73.5714793,51.7413154 73.5469418,51.7654206 L72.2925572,53.6017965 L71.5043843,53.8326218 C70.9571247,53.6120229 70.4046601,53.3549011 69.8655795,53.0802482 L69.5480797,52.3373706 L70.1845665,50.2102717 C70.1927457,50.1839751 70.1823358,50.1489131 70.1555677,50.1386866 C69.6313584,49.8216671 69.113841,49.4820033 68.6297839,49.1255389 C68.6141692,49.1196952 68.6052465,49.1153125 68.5933495,49.1153125 C68.5747605,49.1138515 68.56212,49.1153125 68.5479924,49.1255389 L66.7790647,50.4893073 L65.9581752,50.4688545 C65.5031169,50.086824 65.0599555,49.6755751 64.6428187,49.2533694 L64.564745,48.4505941 L65.8384621,46.6259055 C65.8511027,46.6018003 65.8511027,46.571121 65.8287959,46.5470158 C65.4302481,46.0963222 65.054007,45.6164101 64.7045342,45.1233497 C64.6837145,45.1028968 64.6651255,45.0970532 64.6562028,45.0970532 L62.509547,45.8596532 L61.7273225,45.598879 C61.4187454,45.090479 61.1235524,44.5667394 60.8506661,44.0408083 L61.0350688,43.2562945 L62.8263033,41.9012916 C62.84861,41.8830301 62.8567892,41.8523508 62.8471229,41.8224019 C62.6136453,41.2804008 62.3980131,40.7077203 62.2188153,40.1248134 C62.2128668,40.0970559 62.1816373,40.0831772 62.1682532,40.0831772 L59.90932,40.1620668 L59.2564749,39.6719283 C59.1122243,39.0919432 58.9992033,38.5031926 58.9166682,37.9224771 L59.3323179,37.2373058 L61.4529492,36.4944282 C61.4797173,36.4805495 61.4945885,36.4564443 61.4945885,36.4235736 C61.4693075,36.1167805 61.4492314,35.8092569 61.4432829,35.5199949 C61.4321295,35.2285414 61.4284117,34.9254006 61.4321295,34.6215293 C61.4321295,34.5915805 61.4120534,34.5652839 61.3875159,34.5528661 L59.2252454,33.9524282 L58.7560594,33.2891707 C58.8081086,32.692385 58.8794903,32.101443 58.9806143,31.5251103 L58.9806143,31.5251103 Z M25.6290028,118.110158 C36.1808531,120.636818 45.4247826,120.471004 53.1191345,126.923885 L53.1994389,126.923885 C60.8989957,120.471004 70.1414381,120.636818 80.6851093,118.110158 C91.8526268,115.57108 106.309651,114.5068 106.315599,103.769041 L106.320061,103.769041 L106.320061,103.763197 L106.315599,103.763197 L106.315599,0.0218407471 L0,0.0218407471 L0,103.763197 L0,103.769041 C0.00892271188,114.5068 14.4681773,115.57108 25.6290028,118.110158 L25.6290028,118.110158 Z" id="Fill-27" fill="#FFFFFF" mask="url(#mask-2)"></path>
                </g>
                <path d="M69.5729086,26.5967704 C69.7796181,26.7340968 69.9766613,26.875806 70.1618075,27.0153238 L73.547233,29.5376015 C74.211975,30.029201 74.8863833,30.3206544 75.541459,30.4031964 C77.2412355,30.609186 78.5000814,29.4243803 78.7655321,27.3790928 L79.2934592,23.2395772 C79.3239451,23.0029082 79.3611231,22.7640478 79.3983011,22.5273789 C79.4213514,22.3776346 79.3856605,22.225699 79.2845365,22.1102863 C79.2005143,22.0051001 79.0696478,21.9364369 78.9432428,21.9247495 C78.9201924,21.9203668 78.9038341,21.9203668 78.8897065,21.9203668 C75.3317753,21.8071455 71.9061976,23.2271593 69.491117,25.8056824 C69.3877623,25.9189037 69.3364567,26.0664566 69.3490972,26.2183922 C69.3669426,26.3703278 69.4494777,26.5076543 69.5729086,26.5967704" id="Fill-30" fill="#FFFFFF"></path>
                <path d="M7.46392259,145.740892 L9.69162622,140.140456 L11.9438673,145.740892 L7.46392259,145.740892 Z M8.13684362,134.90379 L0.212732326,152.913276 L4.66367821,152.913276 L6.19317965,149.095893 L13.3172212,149.095893 L14.8965411,152.913276 L19.4530724,152.913276 L11.4783991,134.90379 L8.13684362,134.90379 Z" id="Fill-32" fill="#FFFFFF"></path>
                <path d="M11.1635764,131.489768 C11.1635764,132.203427 10.570216,132.786334 9.84375857,132.786334 C9.12101891,132.786334 8.52617145,132.203427 8.52617145,131.489768 C8.52617145,130.779761 9.12101891,130.193201 9.84375857,130.193201 C10.570216,130.193201 11.1635764,130.779761 11.1635764,131.489768 M6.96767115,131.489768 C6.96767115,133.041264 8.26889993,134.317377 9.84375854,134.317377 C11.4253092,134.317377 12.7183588,133.041264 12.7183588,131.489768 C12.7183588,129.938271 11.4253092,128.666541 9.84375854,128.666541 C8.26889993,128.666541 6.96767115,129.938271 6.96767115,131.489768" id="Fill-34" fill="#FFFFFF"></path>
                <path d="M25.4908487,139.964923 C25.4908487,138.613573 27.067938,138.110286 28.2048402,138.110286 C29.1885692,138.110286 30.4860802,138.484281 31.1344639,139.299474 L33.9079401,136.325772 C32.3531576,134.977344 30.3559573,134.439725 28.2806832,134.439725 C24.6840868,134.439725 21.2912257,136.452872 21.2912257,140.2929 C21.2912257,146.29947 29.8904892,144.51934 29.8904892,147.826862 C29.8904892,149.096401 28.4122932,149.709987 27.0924755,149.709987 C25.7481202,149.709987 24.3978165,149.072296 23.5724657,148.002172 L20.6963782,151.109548 C22.4318457,152.683689 24.504889,153.373973 26.8582543,153.373973 C30.639997,153.373973 33.9324776,151.46236 33.9324776,147.44337 C33.9324776,141.13512 25.4908487,143.246148 25.4908487,139.964923" id="Fill-36" fill="#FFFFFF"></path>
                <polygon id="Fill-38" fill="#FFFFFF" points="36.0259681 138.413436 41.2613693 138.413436 41.2613693 152.913062 45.2974093 152.913062 45.2974093 138.413436 50.5313234 138.413436 50.5313234 134.904307 36.0259681 134.904307"></polygon>
                <path d="M61.89187,149.709915 C58.4454725,149.709915 56.1947184,147.265797 56.1947184,143.906412 C56.1947184,140.547758 58.4454725,138.109484 61.89187,138.109484 C65.3382675,138.109484 67.5919958,140.547758 67.5919958,143.906412 C67.5919958,147.265797 65.3382675,149.709915 61.89187,149.709915 M61.8918696,134.438923 C56.1701809,134.438923 51.9965827,138.133589 51.9965827,143.906413 C51.9965827,149.68508 56.1701809,153.374633 61.8918696,153.374633 C67.6150454,153.374633 71.786413,149.68508 71.786413,143.906413 C71.786413,138.133589 67.6150454,134.438923 61.8918696,134.438923" id="Fill-40" fill="#FFFFFF"></path>
                <path d="M81.2548969,142.35324 L78.8725329,142.35324 L78.8725329,138.261204 L81.5151426,138.261204 C82.9888771,138.261204 84.6470143,138.54024 84.6470143,140.346667 C84.6470143,142.30503 82.7286314,142.35324 81.2548969,142.35324 M88.8399448,140.369311 C88.8399448,136.172089 85.6857664,134.904742 81.9285614,134.904742 L74.8357495,134.904742 L74.8357495,152.913497 L78.8725328,152.913497 L78.8725328,145.713355 L80.8667587,145.713355 L84.7012939,152.913497 L89.5440955,152.913497 L84.8812353,145.306489 C87.468078,144.846299 88.8399448,142.886476 88.8399448,140.369311" id="Fill-42" fill="#FFFFFF"></path>
                <g id="Group-46" transform="translate(92.201356, 134.382677)">
                    <mask id="mask-4" fill="white">
                        <use xlink:href="#path-3"></use>
                    </mask>
                    <g id="Clip-45"></g>
                    <path d="M7.31000595,8.15032408 L4.6168342,8.15032408 L4.6168342,3.87859526 L6.69062106,3.87859526 C8.24317286,3.87859526 10.1630429,4.13133435 10.1630429,5.9867022 C10.1630429,7.6667597 8.73838335,8.15032408 7.31000595,8.15032408 M7.39105408,0.522132629 L0.57930708,0.522132629 L0.57930708,18.5301572 L4.61683423,18.5301572 L4.61683423,11.5104389 L7.57322611,11.5104389 C11.4315555,11.5104389 14.3574614,10.2138728 14.3574614,5.98670212 C14.3574614,1.71424296 11.1973343,0.522132629 7.39105408,0.522132629" id="Fill-44" fill="#FFFFFF" mask="url(#mask-4)"></path>
                </g>
                <path d="M50.0820675,70.0201912 C50.05753,70.1538653 50.1831915,70.0267653 50.0820675,70.0201912" id="Fill-47" fill="#FFFFFF"></path>
                <path d="M4.96786853,50.4076409 C4.95597159,50.3484737 4.94407464,50.2893064 4.93217769,50.2316001 C4.85112972,49.8349604 4.77528667,49.4602346 4.81023396,49.4112938 C4.81172108,49.4091024 4.8132082,49.4091024 4.81395175,49.4091024 C4.84592481,49.4091024 4.96935565,49.5515421 5.10022209,49.7027472 C5.19985904,49.8174294 5.3121365,49.9467208 5.43631091,50.0782035 C5.83337159,50.4974875 6.1932543,50.9328415 6.13748735,51.2710443 C6.11443701,51.4091024 6.02000498,51.523053 5.85790904,51.6107081 C5.72629904,51.6669535 5.60732955,51.6691449 5.50397481,51.6165518 C5.21621735,51.4697294 5.07122328,50.922615 4.96786853,50.4076409 M4.72100679,52.4595022 C4.67713679,52.5924459 4.5656029,52.6903275 4.39161002,52.7516861 C4.25256443,52.7874787 4.13508205,52.772139 4.04139358,52.7042063 C3.78040426,52.5150172 3.7231502,51.9532936 3.70233053,51.428093 C3.70009986,51.3674648 3.69712562,51.3068367 3.69489494,51.2476694 C3.67779308,50.8444556 3.66143477,50.4631556 3.70381765,50.4200585 C3.70456121,50.419328 3.70604833,50.4185976 3.70604833,50.4185976 C3.73653426,50.4185976 3.83765833,50.5807597 3.94473087,50.7524177 C4.02429172,50.8802482 4.11500595,51.0256097 4.21687358,51.173893 C4.54329612,51.6494223 4.83031001,52.1337172 4.72100679,52.4595022 M5.96349429,48.6917899 L5.96572497,48.6895985 L5.96795565,48.6895985 C6.00215938,48.6895985 6.13897429,48.817429 6.28396836,48.9518336 C6.3947587,49.0555589 6.52042023,49.1731629 6.65723515,49.2900365 C7.09742227,49.6669537 7.50191855,50.0621325 7.48258601,50.4047181 C7.47440686,50.5435054 7.39335889,50.6669531 7.24092923,50.7706784 C7.11675482,50.8408026 6.99852888,50.8546813 6.88996922,50.8130451 C6.58808413,50.696902 6.38509243,50.1680491 6.2267143,49.6669537 C6.20886887,49.6085169 6.19027989,49.5508106 6.17243446,49.4945652 C6.04974717,49.1088825 5.93375192,48.744383 5.96349429,48.6917899 M7.39782037,48.0950037 C7.39930749,48.0942733 7.40079461,48.0942733 7.40302528,48.0942733 C7.44094681,48.0942733 7.59188935,48.1979986 7.75101105,48.3068371 C7.87667257,48.3937618 8.0186924,48.4916434 8.17260918,48.5873336 C8.66484546,48.8955876 9.12510868,49.2272164 9.15708173,49.5683411 C9.1704658,49.7078589 9.10875038,49.841533 8.97342258,49.9657112 C8.86188868,50.0533664 8.74663698,50.0847761 8.63287241,50.05921 C8.31685969,49.9883555 8.03653783,49.4952951 7.80380376,49.0226876 C7.77703562,48.9671727 7.74952393,48.9123882 7.72349935,48.8590646 C7.543558,48.4960261 7.37477003,48.1534405 7.39633325,48.0971951 C7.39633325,48.0957342 7.39707681,48.0950037 7.39782037,48.0950037 M33.791947,20.4003529 C33.9852724,20.1278914 34.9013375,21.0687236 35.9594224,19.6698932 C36.2323087,19.4507552 36.386969,20.7217552 35.3913431,21.2045891 C34.1436506,21.6253339 33.6410045,20.6202213 33.791947,20.4003529 M34.3369726,19.7122599 C34.0804447,19.7480525 33.8387879,19.5420628 33.7971486,19.2528008 C33.7555092,18.9628082 33.9302457,18.6991123 34.1867736,18.6640502 C34.4433016,18.6282577 34.6849584,18.8342473 34.7265977,19.1235094 C34.768237,19.4127714 34.5942441,19.6764674 34.3369726,19.7122599 M32.254266,18.6297187 C32.0631712,17.1899824 36.6137542,17.1322761 37.369954,17.7385577 C37.4383615,17.7874985 37.489667,17.8415526 37.5275886,17.8992589 C37.7960135,18.3119687 37.2680864,18.7831152 36.8464882,18.5216106 C33.7138729,16.5763962 32.31152,19.0650727 32.254266,18.6297187 M36.9766108,103.716592 C36.9334843,103.759689 36.8903579,103.802786 36.847975,103.845153 C36.559474,104.132224 36.2873313,104.403955 36.2263594,104.403955 C36.2248723,104.403955 36.2233852,104.403955 36.2226416,104.403224 C36.2025655,104.38131 36.2538711,104.197965 36.3081509,104.005124 C36.3490467,103.859032 36.3951474,103.694678 36.4360431,103.520098 C36.5669096,102.962027 36.7312362,102.425139 37.0479925,102.281239 C37.1015287,102.256403 37.1580393,102.244716 37.217524,102.244716 C37.3030333,102.244716 37.3937476,102.269551 37.4911538,102.318492 C37.612354,102.392999 37.6807615,102.487959 37.6941455,102.602641 C37.7320671,102.9182 37.3528518,103.342597 36.9766108,103.716592 M37.8711101,104.309725 C38.0346932,103.759689 38.2309928,103.233028 38.5559283,103.107388 C38.6027725,103.089127 38.6518474,103.080361 38.7024095,103.080361 C38.7946108,103.080361 38.8927606,103.11031 38.9953718,103.170208 C39.1121106,103.251289 39.1745696,103.350632 39.1812617,103.465314 C39.2005942,103.783064 38.7968415,104.184817 38.3990373,104.536168 C38.352193,104.577804 38.3068359,104.617979 38.2614788,104.658155 C37.9595937,104.926233 37.6740669,105.178972 37.6101208,105.178972 C37.6078901,105.178972 37.6056595,105.178972 37.6056595,105.178242 C37.5863269,105.154867 37.6487859,104.975905 37.7142191,104.785255 C37.7640376,104.643545 37.8198045,104.482114 37.8711101,104.309725 M39.4534076,104.777952 C39.7017564,104.259326 39.979104,103.769187 40.3196541,103.694681 C40.3486529,103.688106 40.3769082,103.685185 40.405907,103.685185 C40.5174409,103.685185 40.6304619,103.731204 40.7442265,103.823241 C40.8468377,103.921123 40.8929383,104.028501 40.8817849,104.143183 C40.8498119,104.460933 40.387318,104.796214 39.9396953,105.082554 C39.8869026,105.115425 39.835597,105.148295 39.7857786,105.180436 C39.4519204,105.39446 39.1366513,105.597528 39.0630389,105.597528 C39.0608083,105.597528 39.0585776,105.597528 39.0570905,105.596798 C39.0548598,105.596798 39.0541162,105.596067 39.0541162,105.595337 C39.039245,105.569771 39.1292157,105.401765 39.2236477,105.224263 C39.2950294,105.090589 39.3760774,104.940114 39.4534076,104.777952 M35.5415395,102.574156 C35.5073358,102.623827 35.4746192,102.673498 35.4419026,102.722439 C35.215117,103.061372 35.0009719,103.380583 34.9414872,103.39154 C34.94,103.39154 34.9385129,103.39154 34.9385129,103.39081 C34.9139755,103.373279 34.9281031,103.18409 34.9429743,102.983944 C34.9541277,102.834199 34.9667682,102.664002 34.9727167,102.48504 C34.9898185,101.912359 35.0448419,101.354288 35.3266509,101.151951 C35.3980326,101.100819 35.4820548,101.074522 35.5787175,101.074522 C35.6374587,101.074522 35.7006612,101.084748 35.7683251,101.10374 C35.9021658,101.153412 35.9876751,101.234493 36.0241095,101.343331 C36.1237465,101.645741 35.835989,102.135149 35.5415395,102.574156 M13.277887,59.997846 L13.277887,61.0869615 L16.0498761,59.6428426 C15.72271,60.4434265 16.0000576,61.3455443 16.0000576,61.3455443 C16.0000576,61.3455443 17.509483,60.016838 20.2837027,58.9087305 C23.0586659,57.7998926 26.5184473,56.4390461 28.0814089,55.7977024 C29.0881882,55.3842622 29.6294994,56.4368547 28.5349801,56.9364892 C27.2701858,57.5135524 23.0058732,59.354311 23.0058732,59.354311 C23.0058732,59.354311 22.5515585,61.9540172 23.3077583,63.6121609 L23.962834,62.8692833 C23.962834,62.8692833 24.2149006,64.8751258 24.7190338,65.3455419 L25.3741096,64.6523356 C25.3741096,64.6523356 26.2314334,69.4302729 31.4222208,74.4061647 C29.2807701,80.3228887 30.364136,84.457291 30.364136,84.457291 C30.364136,84.457291 30.2630119,87.6260254 31.4222208,90.200896 L32.0780401,88.8144834 C32.0780401,88.8144834 32.5814298,91.3396828 33.9927053,92.7757667 L33.9927053,91.5376374 C33.9927053,91.5376374 34.9020783,93.0482282 35.3036003,93.3199592 C35.7051224,93.5924207 37.3446706,94.5821937 37.3193896,95.5975327 C37.2941086,96.6128718 35.1519142,98.6092183 34.5979626,100.556624 C34.0432673,102.50476 34.2953339,104.04603 34.6730621,104.287082 C35.0515337,104.528864 35.8449115,103.488689 35.8449115,103.488689 C35.8449115,103.488689 35.4850288,104.807169 35.7125579,105.191391 C36.2077684,105.401033 37.1677035,104.492341 37.1677035,104.492341 C37.1677035,104.492341 36.7141323,105.970792 37.111193,106.162172 C37.5082536,106.354283 38.5477495,105.191391 38.5477495,105.191391 C38.5477495,105.191391 38.1544067,106.485035 38.4280365,106.589491 C38.9633992,106.79402 42.7124251,104.105928 43.871634,102.331641 C45.030843,100.556624 45.9885473,98.7648062 46.1394899,96.7480068 C46.2904324,94.7312074 43.3600653,88.2447248 43.4359083,86.9328191 C43.5117513,85.6216438 43.871634,84.8532002 43.871634,84.8532002 L44.7787764,85.8437036 C45.4085711,84.7049168 45.3832901,81.8824203 45.3832901,81.8824203 L46.2153329,82.550791 C46.9707892,81.5120772 47.1477563,74.3068222 47.1477563,74.3068222 C47.1477563,74.3068222 47.828113,75.6683992 49.4661741,75.6932348 C49.4408931,74.8517452 50.0706878,74.6041193 50.0706878,74.6041193 C50.0706878,74.6041193 50.4402368,74.8977641 50.843246,75.6895825 C52.9832096,71.4894389 49.5159926,70.1483148 49.5159926,70.1483148 L50.7287378,69.8137642 C50.3130882,68.5880528 47.4117198,68.2914861 47.4117198,67.6355332 C47.4117198,66.9788499 47.802832,66.3353149 47.2481368,64.2067551 L48.4073457,64.7509477 C48.0801796,61.731227 45.8621423,59.4039822 45.1817855,54.9474473 C44.5014288,50.4916427 44.9802809,48.3623526 44.9802809,48.3623526 L45.6859187,49.1549014 C46.491937,47.8919365 46.1900519,45.2922302 46.1900519,45.2922302 L47.0971942,46.084779 C47.0971942,46.084779 48.4690611,41.5749205 48.4690611,39.0248855 C48.4690611,36.4748505 47.5002034,34.349943 47.5002034,32.1220408 C47.5002034,29.8941385 49.0624214,27.1337311 49.0624214,24.9985972 C49.0624214,22.8634634 48.2564032,21.9226312 47.9032125,21.6750053 L47.2102153,22.362368 C46.9529437,22.553018 46.6800575,22.6698915 46.491937,22.516495 C46.3818902,22.3492197 46.3997356,22.0906369 46.6057016,21.8232887 C46.9447646,21.3828214 47.4228732,20.9401628 47.4228732,20.9401628 C47.4228732,20.9401628 50.4461853,18.3163514 48.5084698,16.4763233 C46.3268668,14.4047394 44.7282143,17.1198583 44.7282143,17.1198583 C44.7282143,17.1198583 44.749034,17.0994054 44.134854,17.942356 C43.7526646,18.4653652 43.2448136,18.0563077 43.5206741,17.4741313 C43.6872313,17.1220497 43.9214525,16.7728899 43.9214525,16.7728899 C43.9214525,16.7728899 42.7875246,15.8795376 39.0831122,15.6085371 C34.1436478,15.1885227 30.0109453,17.7633934 28.5498513,17.7633934 C27.4404608,17.7633934 26.6262634,17.2155485 26.0730553,17.4814359 C25.1443498,17.9284773 25.8403212,18.940164 25.7020192,19.5530198 C25.7020192,19.5530198 27.7349103,18.3835537 27.7936515,18.9964094 C28.037539,20.0541151 25.9206257,19.7948019 25.8276807,20.7107985 C25.8276807,22.8415496 27.3951037,22.4668237 27.3951037,22.4668237 L27.944594,23.1907093 L29.0034225,22.4178829 L29.7090602,23.1907093 L30.7165831,22.3185404 C30.7165831,22.3185404 33.0350009,22.2199283 33.4387536,23.1183938 C31.850511,23.1183938 31.7754115,24.1505335 30.8177071,24.1505335 C29.8600028,24.1505335 28.0709991,23.5566697 26.8865092,23.5566697 C25.7020192,23.5566697 24.8699764,24.2995473 24.8699764,24.2995473 C24.8699764,24.2995473 23.9940635,25.3053903 25.4246716,24.9985972 C27.4151798,24.5712783 28.6755128,26.3674788 31.4222208,26.3674788 C33.4759316,26.3674788 33.8417628,25.9891007 33.8417628,25.9891007 C33.8417628,25.9891007 32.9703113,27.4514811 30.283088,27.1439575 L29.6956762,26.6246007 L29.078522,27.2140817 L28.4360867,26.4901961 L27.8025742,27.3068501 C27.8025742,27.3068501 27.0374517,27.4229932 27.0374517,27.9182449 C27.0374517,29.7173673 29.1922865,29.6655046 29.1922865,29.6655046 C28.9498862,29.6655046 31.1746156,29.902904 33.7852523,29.5164908 C34.3957144,29.5164908 34.7109836,30.5997627 34.2760014,31.1877828 C33.8417628,31.7758029 29.7968002,33.4098413 28.6063618,34.5486281 L29.4941716,35.1052384 C29.4941716,35.1052384 27.1638568,36.1695183 26.6218021,36.9438056 L27.3906424,37.2717821 C27.3906424,37.2717821 23.7754571,41.6041389 23.1062537,46.9262687 C23.1062537,46.9262687 27.1385758,45.3528584 27.9951561,44.9321135 C28.8517364,44.5106383 29.3417419,45.5340124 28.4093186,45.9357652 C25.8648587,46.9942014 18.1348163,50.187041 15.697429,51.2527818 C13.2600416,52.3185226 12.0420915,51.7020146 12.0420915,51.7020146 C12.0420915,51.7020146 11.2390475,48.9211543 6.99629815,47.3820756 C6.40219428,47.1797382 7.18441865,49.2199123 7.18441865,49.2199123 C7.18441865,49.2199123 5.80585973,47.7400008 5.51066669,47.9343031 C5.21473009,48.1286054 5.7880143,49.7538784 5.7880143,49.7538784 C5.7880143,49.7538784 4.90392231,48.6202048 4.40425046,48.634814 C3.96555048,48.6486928 4.52173283,50.7830962 4.52173283,50.7830962 C4.52173283,50.7830962 3.66589609,49.1534405 3.39449695,49.3835353 C3.00858967,49.7122422 2.63234867,51.9269962 3.32385881,53.9160381 C3.32385881,53.9160381 3.85178591,55.6903248 5.61699567,57.7202725 C7.38294898,59.7502202 9.69987973,60.9138426 13.277887,59.997846" id="Fill-49" fill="#FFFFFF"></path>
                <path d="M8.95535422,25.7685757 C8.99327575,25.7218263 9.03119728,25.6750769 9.06837524,25.6297884 C9.39107999,25.2309574 9.57771338,25.0052453 9.64463372,24.9994016 C9.6543,24.9979407 9.66099203,25.0023235 9.66470983,25.0052453 C9.69519576,25.0322723 9.67586322,25.1549895 9.62976254,25.4311033 C9.60448152,25.5786562 9.57622627,25.7466619 9.55391949,25.9241636 C9.48328135,26.4990354 9.37546525,27.0556458 9.06763168,27.2367998 C8.99996778,27.2762446 8.92561185,27.295967 8.84382032,27.295967 C8.76872083,27.295967 8.68841642,27.2791664 8.6029071,27.2470262 L8.60216354,27.2462958 C8.46683574,27.1820153 8.38430066,27.0885165 8.35678896,26.9694515 C8.28317659,26.6495102 8.61852185,26.1827464 8.95535422,25.7685757 M10.6097736,25.8255516 C10.6410031,25.7722281 10.671489,25.719635 10.7012314,25.6685028 C10.9042231,25.3171516 11.0960614,24.9855229 11.1555461,24.9709137 C11.1562897,24.9701832 11.1577768,24.9701832 11.1585204,24.9709137 C11.1838014,24.9869838 11.1823143,25.1769034 11.1800836,25.3777798 C11.1785965,25.5282545 11.1771094,25.6984516 11.1838014,25.8774143 C11.2038775,26.4500947 11.1860321,27.0103574 10.9176072,27.2302258 C10.8090475,27.3200723 10.6618228,27.344908 10.4803943,27.3069241 C10.3435794,27.2652879 10.2528651,27.1900505 10.2097387,27.0834034 C10.0900256,26.7875672 10.3450665,26.2813585 10.6097736,25.8255516 M12.055253,26.0753688 C12.080534,26.0198539 12.1050714,25.9643389 12.1288653,25.9110154 C12.2939355,25.5399418 12.4485958,25.1900516 12.5058499,25.1695987 C12.507337,25.1688683 12.5088241,25.1688683 12.5095677,25.1695987 C12.5363358,25.182747 12.5549248,25.3712056 12.5750009,25.5713516 C12.5891285,25.7210958 12.6062304,25.8905625 12.6315114,26.0680642 C12.7133029,26.6356314 12.7556858,27.1944332 12.5125419,27.4405981 C12.4136485,27.5406711 12.2701416,27.5823073 12.0857389,27.5618544 C11.9452062,27.5348274 11.8463128,27.4698165 11.792033,27.3682826 C11.641834,27.0863251 11.8411079,26.5567418 12.055253,26.0753688 M13.6769555,26.6034911 C13.6933138,26.5443239 13.7089286,26.4866176 13.7245433,26.4296417 C13.8308723,26.0388458 13.9312528,25.6699636 13.9847891,25.6414757 C13.9862762,25.6407452 13.9870198,25.6407452 13.9877633,25.6407452 C14.0167621,25.6502412 14.0636064,25.8335866 14.1134248,26.0286193 C14.1506028,26.1747113 14.1929857,26.3405256 14.2457784,26.5114532 C14.4123357,27.0607589 14.5387408,27.6078733 14.3357491,27.8869089 C14.253214,28.0001302 14.1171426,28.0614888 13.9319964,28.0687934 C13.7884894,28.0629497 13.6814169,28.012548 13.6122658,27.9197796 C13.4204275,27.6633882 13.5371664,27.1104302 13.6769555,26.6034911 M11.2180052,39.3390568 C13.2218975,40.8861706 14.7796543,42.194424 16.831878,44.2404417 C18.8833581,46.2864595 21.6471681,46.8277301 21.6471681,46.8277301 C21.6471681,46.8277301 22.1148669,42.3748475 25.5344961,37.7809862 C25.5344961,37.7809862 23.4465816,37.7050184 20.0068762,35.95995 C16.5671709,34.2141513 15.0926927,31.3551318 15.0926927,31.3551318 C15.0926927,31.3551318 16.3403853,28.7371641 14.1602694,24.8438136 C13.8457438,24.3091171 13.0769035,26.3544044 13.0769035,26.3544044 C13.0769035,26.3544044 13.0218801,24.3485619 12.6686894,24.3054648 C12.3162423,24.2623677 11.6656279,25.8591527 11.6656279,25.8591527 C11.6656279,25.8591527 11.7533679,24.4332953 11.3652299,24.1228499 C11.0254233,23.8511188 10.0223618,25.8218992 10.0223618,25.8218992 C10.0223618,25.8218992 10.4625489,24.0395775 10.1034098,24.0395775 C9.59332809,24.0395775 7.83183609,25.4705481 7.02879204,27.4186842 C6.22500442,29.3668204 5.5163924,32.6918731 6.57522086,34.6969851 C7.58274372,36.6305121 9.21485641,37.7919431 11.2180052,39.3390568" id="Fill-51" fill="#FFFFFF"></path>
                <path d="M14.6602391,101.065826 C14.4639394,101.319295 13.8906552,101.366045 13.356036,101.377732 C13.2950641,101.379193 13.2340923,101.380654 13.1746075,101.382115 C12.7626757,101.392341 12.3730506,101.401837 12.3299241,101.359471 C12.3291806,101.35801 12.328437,101.357279 12.328437,101.355818 C12.3291806,101.327331 12.4957379,101.23091 12.6719614,101.128645 C12.8035714,101.052678 12.9530268,100.965753 13.1062001,100.867871 C13.5181319,100.604175 13.9374994,100.368237 14.2557428,100.368237 C14.3152275,100.368237 14.3709945,100.376272 14.4223001,100.393803 C14.5568843,100.439822 14.6550341,100.550121 14.7145189,100.72251 C14.7494662,100.859106 14.7308772,100.974518 14.6602391,101.065826 M12.2607729,100.121341 C12.1998011,100.134489 12.1395728,100.146907 12.0808316,100.160055 C11.6793096,100.245519 11.2993507,100.3266 11.2495323,100.292999 C11.2480452,100.290808 11.2473016,100.290077 11.2473016,100.290077 C11.2428402,100.261589 11.3870907,100.13595 11.5410075,100.003007 C11.6555157,99.903664 11.7863821,99.7911732 11.9172485,99.666995 C12.3120785,99.2944605 12.7210362,98.9540662 13.0548943,98.9540662 C13.0772011,98.9540662 13.0987643,98.9555272 13.1203275,98.958449 C13.2616038,98.9789019 13.3790862,99.0694789 13.470544,99.2279887 C13.5300287,99.3550887 13.5344901,99.4719622 13.4824409,99.5749571 C13.3374468,99.8598364 12.7834951,100.011042 12.2607729,100.121341 M11.2881975,98.9182734 C10.9015466,99.0548694 10.536459,99.1848912 10.4821792,99.1571337 C10.4806921,99.1564033 10.4799485,99.1564033 10.4799485,99.1556728 C10.4710258,99.1271849 10.5981744,98.9840148 10.7327587,98.8320791 C10.8331392,98.7188579 10.9469037,98.590297 11.0606683,98.4507791 C11.4227817,98.0051987 11.8049712,97.5932194 12.152957,97.5932194 L12.1581619,97.5932194 C12.3009253,97.5954107 12.429561,97.6699176 12.5410949,97.8145487 C12.6176815,97.9336136 12.6370141,98.0490263 12.5990925,98.1578648 C12.4942507,98.4588142 11.96558,98.6801435 11.4621903,98.8569148 C11.4027056,98.8780981 11.344708,98.898551 11.2881975,98.9182734 M9.83528259,98.0249233 C9.83082124,98.0249233 9.82710344,98.0241928 9.8241292,98.0234624 C9.82264208,98.0227319 9.82189852,98.0220015 9.82189852,98.0220015 C9.80925802,97.9949744 9.91484344,97.8357342 10.0271209,97.6677285 C10.1103995,97.5420894 10.2055751,97.3989193 10.29852,97.2455233 C10.5966873,96.7524624 10.9201356,96.2908118 11.2666343,96.2484452 C11.2829926,96.2462538 11.2993509,96.2455233 11.3164528,96.2455233 C11.4398836,96.2455233 11.5610838,96.3024992 11.6763355,96.4164509 C11.7692804,96.5238285 11.8042277,96.6355888 11.7819209,96.7480796 C11.7194619,97.0607164 11.2264821,97.3507089 10.7528348,97.593952 C10.6978114,97.62244 10.6435316,97.6501974 10.5907389,97.6772244 C10.2442402,97.8554566 9.91633056,98.0249233 9.83528259,98.0249233 M24.517605,68.4150056 C24.517605,68.4150056 20.0443521,69.9007607 16.9072753,74.4062363 L18.3178073,74.257953 C18.3178073,74.257953 15.9242899,76.1396172 15.3948756,77.8225964 L16.6552087,77.7729252 C16.6552087,77.7729252 14.7145188,80.6699285 14.7903619,84.4076909 C14.8654614,88.1461838 15.8105253,92.1812434 15.4454377,93.3200301 C15.0796065,94.4588168 12.6295785,93.8897887 10.3550305,96.0928552 C9.24935781,97.1637092 8.79206882,98.4938764 8.89319289,98.9153516 C8.99431696,99.3360964 10.3044685,98.555235 10.3044685,98.555235 C10.3044685,98.555235 9.11997849,99.70717 9.24564001,100.074591 C9.3720451,100.442012 11.3759375,99.4325171 11.3759375,99.4325171 C11.3759375,99.4325171 9.80033527,100.651654 10.1282449,101.063634 C10.455411,101.475613 12.2637473,100.697673 12.2637473,100.697673 C12.2637473,100.697673 10.3803115,102.009579 11.5142395,102.084086 C15.9242899,102.826963 19.779645,100.557425 19.779645,100.557425 C19.779645,100.557425 24.3911999,98.7100924 25.1221187,95.6472748 C25.8530375,92.5844571 24.3911999,93.3697013 24.517605,90.74589 C24.6432665,88.1213482 27.1505485,87.1680982 28.8518123,85.475623 C28.8518123,85.475623 27.4152557,80.7933762 29.4065075,74.901488 C26.1809472,71.881037 24.517605,68.4150056 24.517605,68.4150056" id="Fill-53" fill="#FFFFFF"></path>
                <path d="M43.4016314,15.4515616 C43.5555482,14.8299403 43.9288149,12.5633236 41.284718,12.2755225 C38.9097896,12.0162093 38.5179339,13.7400943 38.4614234,14.5326432 C38.6673893,14.5406782 38.8748423,14.5509047 39.0837825,14.5691662 C41.4408655,14.7415547 42.7554784,15.1659518 43.4016314,15.4515616" id="Fill-55" fill="#FFFFFF"></path>
            </g>
        </g>
    </g>
</svg>